<?xml version="1.0" encoding="utf-8"?>
<!-- Generator: Adobe Illustrator 16.0.0, SVG Export Plug-In . SVG Version: 6.00 Build 0)  -->
<svg version="1.2" baseProfile="tiny" id="Users" xmlns="http://www.w3.org/2000/svg" xmlns:xlink="http://www.w3.org/1999/xlink"
	 x="0px" y="0px" width="45px" height="45px" viewBox="0 0 45 45" xml:space="preserve">
<g>
	<path fill="#706F6F" d="M27.898,45.047c0.008-1.318-0.065-3.429-0.065-4.354c-0.463-1.478-1.996-1.674-3.276-2.269
		c-1.406-0.653-2.965-1.412-4.368-2.046c-0.4-0.12-0.801-0.244-1.201-0.364c-0.478-0.362-0.946-1.57-1.202-2.169l-0.339-0.098
		l-1.071,0.062c0.665-0.596,1.642-1.128,1.967-1.74l0.585-3.337l0.246,0.01c0.379,0.014,0.78-0.112,0.791-0.752l0.053-3.289
		c0.009-0.234-0.246-0.51-0.534-0.704c-0.053-0.022-0.104-0.046-0.155-0.068c0.088-1.073,0.09-1.979,0.018-2.742
		c0.014-0.139,0.025-0.288,0.029-0.45c0.038-1.464-1.421-4.292-5.059-4.646c-2.323-0.226-4.631,1.045-4.828,2.451
		c-0.132,0-0.289,0.025-0.478,0.079c-0.57,0.162-1.122,1.018-1.208,2.507c-0.094,1.642-0.015,2.422,0.161,2.796
		c-0.041,0.02-0.082,0.039-0.121,0.056c-0.319,0.193-0.623,0.498-0.612,0.756l0.054,3.287c0.01,0.641,0.413,0.768,0.791,0.752
		l0.248-0.01l0.587,3.338c0.373,0.705,1.613,1.302,2.246,2.013l-1.181,0.068c-0.267,0.635-0.662,1.532-1.063,1.836
		c-0.4,0.121-0.801,0.239-1.201,0.359c-1.403,0.632-2.962,1.388-4.369,2.04c-1.28,0.595-2.813,0.798-3.276,2.276
		c0,0.925-0.072,3.034-0.065,4.353H27.898z"/>
	<path fill="#706F6F" d="M25.499,28.107c0.013-0.002,0.025-0.004,0.037-0.008l0.338,2.071l0.329,1.744
		c0.324,0.612,1.302,1.137,1.968,1.616h-0.49l-0.467,0.257c-0.255,0.598-0.724,1.868-1.202,2.229
		c-0.368,0.111-0.737,0.255-1.106,0.365c0.419,0.213,0.832,0.437,1.234,0.637c1.434,0.713,3.151,0.957,3.67,2.73
		c0,1.125,0.084,3.719,0.073,5.297H45c0.004-1.322-0.066-3.38-0.066-4.289c-0.463-1.478-1.996-1.683-3.276-2.277
		c-1.406-0.651-2.966-1.406-4.368-2.039c-0.4-0.12-0.802-0.239-1.201-0.359c-0.479-0.361-0.957-1.564-1.213-2.162
		c-0.254-0.04-0.295-0.095-0.774-0.135c0-0.002,0-0.254,0-0.254h-0.463c0.664-0.479,1.669-1.025,1.998-1.648l0.585-3.275
		l0.009,0.031l0.09-0.548c0.002,0.001,0.005,0.009,0.008,0.009c0.543,0.088,1.139-0.812,1.332-2.018
		c0.193-1.203-0.088-2.248-0.631-2.334c-0.134-0.023-0.271,0.018-0.405,0.107c0.088-1.07,0.09-1.972,0.017-2.733
		c0.015-0.139,0.025-0.289,0.029-0.45c0.016-0.622,0.707-2.601,0.062-3.108c-0.123-0.096-0.434-0.011-0.668,0.005
		c-1.255,0.09-2.593-1.363-4.454-1.543c-2.322-0.226-4.629,1.045-4.827,2.45c-0.132,0-0.29,0.025-0.478,0.079
		c-0.57,0.163-1.122,1.019-1.208,2.507c-0.094,1.641-0.015,2.422,0.161,2.796c-0.011,0.005-0.021,0.01-0.031,0.015
		c-0.141-0.1-0.286-0.146-0.429-0.123c-0.542,0.087-0.825,1.133-0.631,2.338C24.359,27.291,24.957,28.195,25.499,28.107z"/>
</g>
<g>
</g>
<g>
</g>
<g>
</g>
<g>
</g>
<g>
</g>
<g>
</g>
</svg>
