<?xml version="1.0" encoding="utf-8"?>
<!-- Generator: Adobe Illustrator 16.0.0, SVG Export Plug-In . SVG Version: 6.00 Build 0)  -->
<svg version="1.2" baseProfile="tiny" id="Deployments"
	 xmlns="http://www.w3.org/2000/svg" xmlns:xlink="http://www.w3.org/1999/xlink" x="0px" y="0px" width="45px" height="45px"
	 viewBox="0 0 45 45" xml:space="preserve">
<g id="Your_Icon_1_">
	<polygon fill="#706F6F" points="45,26.472 45,17.379 35.907,17.379 35.907,19.411 41.529,19.411 31.816,29.125 15.873,29.125 0,45 
		45,45 45,42.968 41.02,42.968 41.02,25.551 34.032,32.537 34.032,42.968 31.704,42.968 31.704,33.105 24.717,33.105 24.717,42.968 
		22.389,42.968 22.389,33.105 17.521,33.105 15.402,35.225 15.402,42.968 13.073,42.968 13.073,37.554 7.66,42.968 4.906,42.968 
		16.715,31.158 32.658,31.158 42.967,20.848 42.967,26.472 	"/>
</g>
<g>
</g>
<g>
</g>
<g>
</g>
<g>
</g>
<g>
</g>
<g>
</g>
</svg>
