<?xml version="1.0" encoding="utf-8"?>
<!-- Generator: Adobe Illustrator 16.0.0, SVG Export Plug-In . SVG Version: 6.00 Build 0)  -->
<svg version="1.2" baseProfile="tiny" id="cross" xmlns="http://www.w3.org/2000/svg" xmlns:xlink="http://www.w3.org/1999/xlink"
	 x="0px" y="0px" width="45px" height="45px" viewBox="0 0 45 45" xml:space="preserve">
<g>
	<path fill="#B80000" d="M22.5,0C10.094,0,0,10.094,0,22.5s10.094,22.498,22.5,22.498C34.906,44.998,45,34.906,45,22.5
		S34.906,0,22.5,0z M22.5,41.683c-10.577,0-19.184-8.606-19.184-19.183c0-10.578,8.607-19.184,19.184-19.184
		S41.684,11.922,41.684,22.5C41.684,33.076,33.076,41.683,22.5,41.683z"/>
	<path fill="#B80000" d="M24.845,22.498l6.419-6.419c0.647-0.648,0.647-1.697,0-2.345c-0.647-0.648-1.696-0.648-2.344,0l-6.42,6.42
		l-6.42-6.42c-0.647-0.648-1.696-0.648-2.344,0c-0.648,0.647-0.648,1.697,0,2.345l6.419,6.419l-6.421,6.422
		c-0.647,0.647-0.647,1.697,0,2.345c0.324,0.323,0.748,0.485,1.172,0.485c0.425,0,0.848-0.162,1.173-0.485l6.421-6.421l6.422,6.421
		c0.323,0.323,0.748,0.485,1.172,0.485s0.849-0.162,1.172-0.485c0.647-0.647,0.647-1.696,0-2.345L24.845,22.498z"/>
</g>
<g>
</g>
<g>
</g>
<g>
</g>
<g>
</g>
<g>
</g>
<g>
</g>
</svg>
