<?xml version="1.0" encoding="utf-8"?>
<!-- Generator: Adobe Illustrator 16.0.0, SVG Export Plug-In . SVG Version: 6.00 Build 0)  -->
<svg version="1.2" baseProfile="tiny" id="Layer_1" xmlns="http://www.w3.org/2000/svg" xmlns:xlink="http://www.w3.org/1999/xlink"
	 x="0px" y="0px" width="180px" height="37px" viewBox="0 0 180 37" xml:space="preserve">
<path fill="#9BBE5D" d="M149.247,17.766l1.771,7.671l0.387,2.136l0.386-2.091l1.518-7.716h2.957l1.596,7.67l0.409,2.137l0.413-2.055
	l1.788-7.752h2.855l-3.775,13.389h-2.684l-1.621-7.827l-0.475-2.587l-0.474,2.587l-1.62,7.827h-2.605l-3.803-13.389H149.247z"/>
<path fill="#9BBE5D" d="M167.285,17.748v13.393h2.786v-5.616h5.945V23.2h-5.945v-3.08h6.783c0,0,0-0.89,0-2.396L167.285,17.748z"/>
<path fill="#9BBE5D" d="M166.155,21.258v9.896h-2.631v-9.896C163.524,21.258,164.839,21.258,166.155,21.258z"/>
<g>
	<path fill="#6D6E70" d="M133.984,36.892c0.385,0.027,0.673,0.037,0.866,0.041c0.191,0.004,0.445,0.005,0.763,0.005
		c1.581,0,2.636-0.312,3.162-0.929c0.528-0.628,1.243-2.229,2.148-4.815l4.685-13.408h-3.799l-2.819,10.06l-2.984-10.06h-3.971
		l5.019,14.237c0.024,0.101-0.051,0.371-0.23,0.828c-0.181,0.445-0.374,0.745-0.583,0.889c-0.22,0.148-0.484,0.239-0.804,0.283
		c-0.317,0.045-0.652,0.059-1.004,0.041l-0.448-0.027V36.892z M123.705,17.461c-1.85,0-3.281,0.689-4.29,2.069
		c-1.012,1.384-1.518,3.084-1.518,5.111c0,2.102,0.523,3.767,1.572,4.996c1.05,1.231,2.451,1.849,4.206,1.849
		c1.138,0,2.062-0.274,2.771-0.817c0.393-0.288,0.76-0.731,1.103-1.308v0.876c0,1.294-0.143,2.224-0.425,2.775
		c-0.436,0.857-1.297,1.286-2.584,1.286c-0.908,0-1.558-0.163-1.941-0.491c-0.224-0.184-0.387-0.481-0.489-0.901h-3.885
		c0.118,1.367,0.726,2.387,1.829,3.069c1.105,0.683,2.529,1.024,4.275,1.024c2.889,0,4.844-0.767,5.864-2.304
		c0.595-0.894,0.889-2.214,0.889-3.975V17.785h-3.483v1.967c-0.535-0.959-1.235-1.621-2.103-1.98
		C124.988,17.566,124.39,17.461,123.705,17.461 M124.603,28.496c-1.248,0-2.113-0.575-2.594-1.728
		c-0.268-0.616-0.402-1.322-0.402-2.114c0-0.918,0.127-1.69,0.376-2.315c0.474-1.173,1.335-1.763,2.583-1.763
		c0.915,0,1.646,0.34,2.192,1.014s0.815,1.659,0.815,2.95c0,1.379-0.284,2.38-0.861,3.01
		C126.139,28.18,125.436,28.496,124.603,28.496 M117.155,24.622c0-1.964-0.575-3.671-1.73-5.108
		c-1.151-1.444-2.901-2.166-5.252-2.166c-2.346,0-4.097,0.722-5.252,2.166c-1.15,1.438-1.727,3.145-1.727,5.108
		c0,2,0.576,3.712,1.727,5.127c1.155,1.421,2.906,2.133,5.252,2.133c2.351,0,4.101-0.712,5.252-2.133
		C116.58,28.334,117.155,26.622,117.155,24.622 M110.159,28.894c-1.044,0-1.845-0.37-2.411-1.111
		c-0.565-0.739-0.843-1.792-0.843-3.16c0-1.364,0.277-2.415,0.843-3.154c0.566-0.733,1.367-1.104,2.411-1.104
		c1.046,0,1.851,0.37,2.41,1.104c0.558,0.739,0.84,1.79,0.84,3.154c0,1.368-0.282,2.421-0.84,3.16
		C112.01,28.523,111.205,28.894,110.159,28.894 M102.212,12.982h-3.57v18.441h3.57V12.982z M97.67,24.622
		c0-1.964-0.573-3.671-1.73-5.108c-1.149-1.444-2.9-2.166-5.249-2.166c-2.348,0-4.099,0.722-5.251,2.166
		c-1.153,1.438-1.73,3.145-1.73,5.108c0,2,0.577,3.712,1.73,5.127c1.153,1.421,2.903,2.133,5.251,2.133
		c2.349,0,4.1-0.712,5.249-2.133C97.097,28.334,97.67,26.622,97.67,24.622 M90.678,28.894c-1.045,0-1.849-0.37-2.413-1.111
		c-0.564-0.739-0.846-1.792-0.846-3.16c0-1.364,0.282-2.415,0.846-3.154c0.564-0.733,1.368-1.104,2.413-1.104
		c1.044,0,1.848,0.37,2.406,1.104c0.558,0.739,0.841,1.79,0.841,3.154c0,1.368-0.283,2.421-0.841,3.16
		C92.525,28.523,91.722,28.894,90.678,28.894 M77.869,17.461c-1.123,0-2.051,0.276-2.783,0.828c-0.409,0.307-0.841,0.81-1.299,1.51
		v-1.986h-3.458v13.611H73.9v-7.383c0-0.841,0.117-1.534,0.349-2.074c0.447-1.029,1.273-1.542,2.476-1.542
		c0.979,0,1.643,0.352,1.991,1.051c0.19,0.386,0.286,0.936,0.286,1.65v8.298h3.66V22.24c0-1.71-0.447-2.934-1.341-3.674
		C80.425,17.832,79.275,17.461,77.869,17.461 M64.229,17.422c-0.748,0-1.461,0.16-2.14,0.471c-0.679,0.312-1.275,0.864-1.791,1.657
		v-6.506h-3.572v18.38h3.572v-7.392c0-1.169,0.241-2.065,0.728-2.697c0.484-0.631,1.196-0.944,2.133-0.944
		c0.903,0,1.517,0.315,1.841,0.951c0.25,0.452,0.373,1.042,0.373,1.775v8.307h3.648v-8.017c0-1.218-0.043-2.096-0.126-2.635
		s-0.311-1.062-0.686-1.571c-0.441-0.6-1.005-1.047-1.692-1.342C65.833,17.572,65.07,17.422,64.229,17.422 M55.668,22.679
		c-0.201-1.941-0.849-3.3-1.938-4.065c-1.092-0.767-2.495-1.152-4.209-1.152c-2.017,0-3.597,0.652-4.743,1.953
		c-1.145,1.301-1.719,3.118-1.719,5.458c0,2.074,0.518,3.762,1.556,5.058c1.038,1.305,2.655,1.952,4.855,1.952
		c2.2,0,3.859-0.773,4.981-2.333c0.703-0.973,1.096-1.997,1.179-3.083h-3.646c-0.076,0.719-0.289,1.303-0.64,1.751
		c-0.352,0.454-0.947,0.677-1.786,0.677c-1.179,0-1.983-0.564-2.411-1.7c-0.236-0.606-0.352-1.41-0.352-2.407
		c0-1.049,0.115-1.89,0.352-2.522c0.443-1.189,1.268-1.786,2.474-1.786c0.847,0,1.471,0.274,1.872,0.823
		c0.277,0.409,0.448,0.867,0.515,1.378H55.668z M35.351,17.422c-2.002,0-3.632,0.631-4.887,1.893
		c-1.252,1.261-1.88,3.072-1.88,5.435c0,2.519,0.694,4.337,2.083,5.46c1.389,1.115,2.995,1.673,4.811,1.673
		c2.203,0,3.919-0.661,5.142-1.981c0.786-0.842,1.228-1.66,1.325-2.471h-3.649c-0.21,0.403-0.457,0.715-0.733,0.939
		c-0.51,0.419-1.17,0.628-1.986,0.628c-0.766,0-1.423-0.171-1.967-0.515c-0.897-0.549-1.376-1.509-1.429-2.878h9.951
		c0.016-1.176-0.022-2.078-0.119-2.706c-0.166-1.069-0.529-2.008-1.089-2.819c-0.62-0.915-1.408-1.592-2.361-2.017
		C37.609,17.637,36.537,17.422,35.351,17.422 M35.352,20.364c0.84,0,1.547,0.244,2.119,0.735c0.567,0.489,0.886,1.209,0.951,2.154
		h-6.154c0.128-0.89,0.447-1.593,0.95-2.111C33.722,20.624,34.433,20.364,35.352,20.364 M22.359,20.452v8.395
		c0,0.852,0.196,1.477,0.601,1.889c0.619,0.639,1.772,0.934,3.458,0.875l1.691-0.065v-2.664c-0.116,0.009-0.234,0.015-0.357,0.019
		c-0.118,0.005-0.234,0.007-0.344,0.007c-0.727,0-1.162-0.065-1.302-0.207c-0.142-0.138-0.214-0.486-0.214-1.042v-7.205h2.218v-2.54
		h-2.218v-3.805h-3.531v3.805H20.45v2.54H22.359z"/>
	<path fill="#9CBE5C" d="M4.158,16.614c1.284,0,2.325-1.042,2.325-2.326c0-1.281-1.041-2.32-2.325-2.32
		c-1.289,0-2.331,1.039-2.331,2.32C1.828,15.571,2.869,16.614,4.158,16.614"/>
	<path fill="#6D6E70" d="M15.132,17.424c-1.122,0-2.053,0.277-2.784,0.828c-0.408,0.307-0.841,0.815-1.299,1.517v-1.993H7.593v13.61
		h3.57v-7.382c0-0.84,0.118-1.531,0.348-2.074c0.449-1.023,1.274-1.537,2.477-1.537c0.979,0,1.64,0.351,1.988,1.052
		c0.192,0.381,0.288,0.932,0.288,1.65v8.291h3.658v-9.18c0-1.713-0.448-2.936-1.338-3.671
		C17.689,17.795,16.539,17.424,15.132,17.424"/>
	<path fill="#6D6E70" d="M2.398,17.78v13.591h3.57V17.78C5.968,17.78,4.352,18.89,2.398,17.78z"/>
</g>
<g>
	<path fill="#9BBE5D" d="M164.955,19.937c0.653,0,1.184-0.529,1.184-1.185c0-0.648-0.53-1.179-1.184-1.179
		c-0.655,0-1.185,0.53-1.185,1.179C163.771,19.407,164.3,19.937,164.955,19.937"/>
</g>
<path fill="#9BBE5D" d="M180,21.258v9.896h-2.632v-9.896C177.368,21.258,178.683,21.258,180,21.258z"/>
<g>
	<path fill="#9BBE5D" d="M178.798,19.937c0.654,0,1.185-0.529,1.185-1.185c0-0.648-0.53-1.179-1.185-1.179s-1.184,0.53-1.184,1.179
		C177.614,19.407,178.144,19.937,178.798,19.937"/>
</g>
<path fill="#9CBE5C" d="M16.335,15.565c-0.994,0.092-1.875-0.641-1.967-1.633c-0.279-3.021-1.726-5.756-4.064-7.696
	C7.96,4.295,5.004,3.38,1.978,3.661C0.983,3.752,0.1,3.025,0.008,2.033C-0.084,1.04,0.65,0.158,1.639,0.066
	C5.634-0.305,9.533,0.903,12.613,3.46c3.083,2.552,4.988,6.153,5.358,10.14C18.062,14.592,17.331,15.473,16.335,15.565
	L16.335,15.565z"/>
<path fill="#9CBE5C" d="M10.919,16.421L10.919,16.421c-0.995,0.092-1.878-0.641-1.97-1.633c-0.316-3.427-3.37-5.96-6.805-5.639
	c-0.995,0.092-1.878-0.641-1.97-1.633C0.081,6.528,0.816,5.646,1.805,5.554C7.23,5.048,12.049,9.045,12.55,14.455
	C12.643,15.447,11.91,16.329,10.919,16.421"/>
<g>
</g>
<g>
</g>
<g>
</g>
<g>
</g>
<g>
</g>
<g>
</g>
</svg>
