<?xml version="1.0" encoding="utf-8"?>
<!-- Generator: Adobe Illustrator 16.0.0, SVG Export Plug-In . SVG Version: 6.00 Build 0)  -->
<svg version="1.2" baseProfile="tiny" id="tick" xmlns="http://www.w3.org/2000/svg" xmlns:xlink="http://www.w3.org/1999/xlink"
	 x="0px" y="0px" width="45px" height="45px" viewBox="0 0 45 45" xml:space="preserve">
<g>
	<path fill="#AAB948" d="M22.501,0C10.094,0,0,10.094,0,22.501C0,34.908,10.094,45,22.501,45C34.908,45,45,34.908,45,22.501
		C45,10.094,34.908,0,22.501,0z M22.501,41.684c-10.579,0-19.186-8.605-19.186-19.183c0-10.579,8.606-19.185,19.186-19.185
		c10.577,0,19.182,8.606,19.182,19.185C41.684,33.078,33.078,41.684,22.501,41.684z"/>
	<path fill="#AAB948" d="M31.023,14.238L20.177,27.179l-6.246-6.844c-0.617-0.679-1.666-0.727-2.343-0.107
		c-0.677,0.617-0.723,1.665-0.106,2.342l7.522,8.245c0.314,0.345,0.759,0.541,1.224,0.541c0.012,0,0.024,0,0.036,0
		c0.478-0.01,0.928-0.227,1.235-0.593l12.066-14.394c0.586-0.703,0.494-1.747-0.207-2.336C32.656,13.443,31.613,13.54,31.023,14.238
		z"/>
</g>
<g>
</g>
<g>
</g>
<g>
</g>
<g>
</g>
<g>
</g>
<g>
</g>
</svg>
