<?xml version="1.0" encoding="utf-8"?>
<!-- Generator: Adobe Illustrator 16.0.0, SVG Export Plug-In . SVG Version: 6.00 Build 0)  -->
<svg version="1.2" baseProfile="tiny" id="Status" xmlns="http://www.w3.org/2000/svg" xmlns:xlink="http://www.w3.org/1999/xlink"
	 x="0px" y="0px" width="45px" height="45px" viewBox="0 0 45 45" xml:space="preserve">
<path fill="#706F6F" d="M4.005,5.365C1.793,5.365,0,7.16,0,9.373v31.619C0,43.205,1.793,45,4.005,45
	c2.213,0,4.005-1.795,4.005-4.008V9.373C8.011,7.16,6.219,5.365,4.005,5.365z M15.87,13.74c-2.213,0-4.007,1.794-4.007,4.005v23.247
	c0,2.213,1.795,4.007,4.007,4.007c2.212,0,4.005-1.794,4.005-4.007V17.746C19.875,15.535,18.083,13.74,15.87,13.74z M28.432,17.926
	c-2.213,0-4.005,1.796-4.005,4.009v19.058c0,2.213,1.794,4.008,4.005,4.008s4.004-1.795,4.004-4.008V21.935
	C32.436,19.722,30.643,17.926,28.432,17.926z M40.994,13.74c-2.212,0-4.006,1.794-4.006,4.005v23.247
	c0,2.213,1.794,4.007,4.006,4.007c2.211,0,4.006-1.794,4.006-4.007V17.746C45,15.535,43.205,13.74,40.994,13.74z"/>
<g>
</g>
<g>
</g>
<g>
</g>
<g>
</g>
<g>
</g>
<g>
</g>
</svg>
